<svg width="44" height="44" viewBox="0 0 44 44" fill="none" xmlns="http://www.w3.org/2000/svg">
<rect width="44" height="44" rx="22" fill="#E1E1E1"/>
<path d="M32.1538 13H11.8462C11.3565 13 10.8869 13.1724 10.5407 13.4793C10.1945 13.7862 10 14.2024 10 14.6364V29.3636C10 29.7976 10.1945 30.2138 10.5407 30.5207C10.8869 30.8276 11.3565 31 11.8462 31H32.1538C32.6435 31 33.1131 30.8276 33.4593 30.5207C33.8055 30.2138 34 29.7976 34 29.3636V14.6364C34 14.2024 33.8055 13.7862 33.4593 13.4793C33.1131 13.1724 32.6435 13 32.1538 13ZM17.3846 28.5455H13.6923C13.4475 28.5455 13.2127 28.4593 13.0396 28.3058C12.8665 28.1524 12.7692 27.9443 12.7692 27.7273V24.4545C12.7692 24.2375 12.8665 24.0294 13.0396 23.876C13.2127 23.7226 13.4475 23.6364 13.6923 23.6364C13.9371 23.6364 14.1719 23.7226 14.345 23.876C14.5181 24.0294 14.6154 24.2375 14.6154 24.4545V26.9091H17.3846C17.6294 26.9091 17.8642 26.9953 18.0373 27.1487C18.2104 27.3022 18.3077 27.5103 18.3077 27.7273C18.3077 27.9443 18.2104 28.1524 18.0373 28.3058C17.8642 28.4593 17.6294 28.5455 17.3846 28.5455ZM31.2308 19.5455C31.2308 19.7624 31.1335 19.9706 30.9604 20.124C30.7873 20.2774 30.5525 20.3636 30.3077 20.3636C30.0629 20.3636 29.8281 20.2774 29.655 20.124C29.4819 19.9706 29.3846 19.7624 29.3846 19.5455V17.0909H26.6154C26.3706 17.0909 26.1358 17.0047 25.9627 16.8513C25.7896 16.6978 25.6923 16.4897 25.6923 16.2727C25.6923 16.0557 25.7896 15.8476 25.9627 15.6942C26.1358 15.5407 26.3706 15.4545 26.6154 15.4545H30.3077C30.5525 15.4545 30.7873 15.5407 30.9604 15.6942C31.1335 15.8476 31.2308 16.0557 31.2308 16.2727V19.5455Z" fill="#737373"/>
</svg>
