<svg width="44" height="44" viewBox="0 0 44 44" fill="none" xmlns="http://www.w3.org/2000/svg">
<rect width="44" height="44" rx="22" fill="#E1E1E1"/>
<path d="M17.624 14.449C19.501 13.698 20.621 13.25 22 13.25C23.379 13.25 24.499 13.698 26.376 14.449L29.346 15.637C30.3 16.019 31.073 16.327 31.604 16.606C31.872 16.746 32.132 16.906 32.333 17.099C32.539 17.297 32.75 17.597 32.75 18C32.75 18.403 32.54 18.703 32.333 18.901C32.133 19.094 31.873 19.253 31.603 19.394C31.073 19.672 30.3 19.981 29.345 20.364L26.375 21.551C24.5 22.302 23.38 22.75 22 22.75C20.62 22.75 19.501 22.302 17.624 21.551L14.655 20.363C13.7 19.981 12.927 19.673 12.396 19.394C12.1315 19.264 11.8861 19.0981 11.667 18.901C11.461 18.703 11.25 18.403 11.25 18C11.25 17.597 11.46 17.297 11.667 17.099C11.867 16.906 12.127 16.747 12.397 16.606C12.927 16.328 13.7 16.019 14.655 15.636L17.624 14.449Z" fill="#737373"/>
<path fill-rule="evenodd" clip-rule="evenodd" d="M12.5004 21.4419V21.4399L12.5034 21.4429L12.5274 21.4639C12.5514 21.4839 12.5907 21.5152 12.6454 21.5579C12.7544 21.6419 12.9234 21.7659 13.1534 21.9149C13.6134 22.2139 14.3144 22.6119 15.2574 22.9889L18.0664 24.1119C20.0914 24.9219 20.9404 25.2499 22.0004 25.2499C23.0604 25.2499 23.9104 24.9219 25.9344 24.1119L28.7434 22.9889C29.4783 22.701 30.1831 22.3412 30.8474 21.9149C31.0718 21.7685 31.2887 21.611 31.4974 21.4429L31.5004 21.4409L31.5014 21.4399C31.6498 21.3086 31.8442 21.2415 32.042 21.2531C32.2398 21.2647 32.425 21.3541 32.5571 21.5018C32.6892 21.6495 32.7575 21.8435 32.7471 22.0413C32.7366 22.2392 32.6483 22.4249 32.5014 22.5579L32.5004 22.5599L32.4984 22.5609L32.4934 22.5649L32.4794 22.5769L32.4344 22.6159C32.1877 22.8153 31.9307 23.0016 31.6644 23.1739C30.9172 23.6514 30.1255 24.0553 29.3004 24.3799L26.4914 25.5039L26.3764 25.5499C24.4994 26.3009 23.3794 26.7489 22.0004 26.7489C20.6214 26.7489 19.5014 26.3009 17.6244 25.5499L17.5094 25.5039L14.7004 24.3799C13.8755 24.055 13.0841 23.6507 12.3374 23.1729C12.0707 23.0006 11.8133 22.8144 11.5664 22.6149L11.5214 22.5759L11.5074 22.5639L11.5024 22.5599L11.5014 22.5579H11.5004L12.0004 21.9999L11.5004 22.5589C11.352 22.4263 11.2623 22.2402 11.2512 22.0415C11.2457 21.9431 11.2596 21.8446 11.2921 21.7516C11.3247 21.6585 11.3752 21.5729 11.4409 21.4994C11.5065 21.4259 11.586 21.3661 11.6748 21.3233C11.7636 21.2806 11.8599 21.2557 11.9583 21.2502C12.157 21.239 12.352 21.3073 12.5004 21.4399M12.4994 25.4399C12.3511 25.308 12.1566 25.2403 11.9585 25.2515C11.7604 25.2628 11.5748 25.3521 11.4424 25.4999L12.4994 25.4399ZM12.4994 25.4399L12.5034 25.4429L12.5274 25.4639C12.5514 25.4839 12.5907 25.5152 12.6454 25.5579C12.7544 25.6419 12.9234 25.7659 13.1534 25.9149C13.6134 26.2139 14.3144 26.6109 15.2574 26.9889L18.0664 28.1119C20.0914 28.9219 20.9404 29.2499 22.0004 29.2499C23.0604 29.2499 23.9104 28.9219 25.9344 28.1119L28.7434 26.9889C29.4783 26.701 30.1831 26.3412 30.8474 25.9149C31.0718 25.7685 31.2887 25.611 31.4974 25.4429L31.5004 25.4409L31.5014 25.4399C31.6498 25.3086 31.8442 25.2415 32.042 25.2531C32.2398 25.2647 32.425 25.3541 32.5571 25.5018C32.6892 25.6495 32.7575 25.8435 32.7471 26.0413C32.7366 26.2392 32.6483 26.4249 32.5014 26.5579L32.4994 26.5599L32.4984 26.5609L32.4934 26.5649L32.4794 26.5769C32.4687 26.5869 32.4537 26.5996 32.4344 26.6149C32.1877 26.8143 31.9307 27.0006 31.6644 27.1729C30.9173 27.6511 30.1256 28.0557 29.3004 28.3809L26.4914 29.5049L26.3764 29.5509C24.4994 30.3019 23.3794 30.7499 22.0004 30.7499C20.6214 30.7499 19.5014 30.3019 17.6244 29.5509L17.5094 29.5049L14.7004 28.3799C13.8755 28.055 13.0841 27.6507 12.3374 27.1729C12.0707 27.0006 11.8133 26.8144 11.5664 26.6149L11.5214 26.5759L11.5074 26.5639L11.5024 26.5599L11.5014 26.5579H11.5004C11.4269 26.4921 11.3671 26.4136 11.3244 26.3247C11.2817 26.2358 11.2569 26.1394 11.2516 26.0409C11.2462 25.9425 11.2602 25.8439 11.293 25.7509C11.3257 25.6579 11.3765 25.5723 11.4424 25.4989" fill="#737373"/>
</svg>
