<svg width="136" height="136" viewBox="0 0 136 136" fill="none" xmlns="http://www.w3.org/2000/svg">
<path d="M51 85H34C29.4913 85 25.1673 83.2089 21.9792 80.0208C18.7911 76.8327 17 72.5087 17 68V34C17 29.4913 18.7911 25.1673 21.9792 21.9792C25.1673 18.7911 29.4913 17 34 17H68C72.5087 17 76.8327 18.7911 80.0208 21.9792C83.2089 25.1673 85 29.4913 85 34V51" stroke="#24325D" stroke-width="2" stroke-linecap="round" stroke-linejoin="round"/>
<path d="M17 68.0001L30.0107 54.9895C32.5717 52.4288 36.045 50.9902 39.6667 50.9902C43.2883 50.9902 46.7616 52.4288 49.3227 54.9895L51 56.6668M51 68.0001C51 63.4914 52.7911 59.1674 55.9792 55.9793C59.1673 52.7912 63.4913 51.0001 68 51.0001H102C106.509 51.0001 110.833 52.7912 114.021 55.9793C117.209 59.1674 119 63.4914 119 68.0001V102C119 106.509 117.209 110.833 114.021 114.021C110.833 117.209 106.509 119 102 119H68C63.4913 119 59.1673 117.209 55.9792 114.021C52.7911 110.833 51 106.509 51 102V68.0001Z" stroke="#24325D" stroke-width="2" stroke-linecap="round" stroke-linejoin="round"/>
<path d="M39.667 34V34.0567M79.3337 76.5V93.5L93.5003 85L79.3337 76.5Z" stroke="#24325D" stroke-width="2" stroke-linecap="round" stroke-linejoin="round"/>
</svg>
