<svg width="24" height="24" viewBox="0 0 24 24" fill="none" xmlns="http://www.w3.org/2000/svg">
<path d="M2.45387 7.94057C2.73517 7.65933 3.11665 7.50134 3.51442 7.50134C3.91219 7.50134 4.29367 7.65933 4.57497 7.94057L12 15.3656L19.425 7.94057C19.7092 7.67592 20.0851 7.53186 20.4734 7.5387C20.8618 7.54554 21.2323 7.70274 21.5071 7.97722C21.7819 8.25171 21.9395 8.62208 21.9468 9.01041C21.954 9.39874 21.8104 9.77475 21.5461 10.0593L13.0617 18.546C12.7804 18.8273 12.3989 18.9853 12.0011 18.9853C11.6034 18.9853 11.2219 18.8273 10.9406 18.546L2.45387 10.0617C2.17264 9.78037 2.01465 9.39889 2.01465 9.00112C2.01465 8.60335 2.17264 8.22186 2.45387 7.94057Z" fill="#252525"/>
</svg>
