<svg width="28" height="28" viewBox="0 0 28 28" fill="none" xmlns="http://www.w3.org/2000/svg">
<g clip-path="url(#clip0_703_4629)">
<path d="M1.414 0L0 1.414L2.49092 5.72169L4.10631 5.48477L13.9666 15.3462L13.1255 16.1538C12.6948 16.5846 12.6948 17.2372 13.1255 17.668L13.5628 18.1063C13.9935 18.5371 14.6526 18.5371 14.9757 18.1063L16.2551 19.3846C16.1474 20.0308 16.2551 20.7986 16.7935 21.3371L22.6154 27.1255C23.8 28.3102 25.7385 28.3102 26.9231 27.1255C28.3231 25.8332 28.3102 23.9012 27.1255 22.7166L21.3371 16.8937C20.7986 16.3552 20.0308 16.1398 19.3846 16.3552L17.9706 15.0769C18.2937 14.6462 18.2937 13.9871 17.9706 13.6629L17.5668 13.2602C17.4689 13.1581 17.3513 13.0768 17.2212 13.0213C17.0911 12.9658 16.9511 12.9372 16.8097 12.9372C16.6682 12.9372 16.5283 12.9658 16.3982 13.0213C16.2681 13.0768 16.1505 13.1581 16.0526 13.2602L15.3462 13.9666L5.48585 4.10631L5.72062 2.49092L1.414 0ZM22.414 0.0333846C20.2892 -0.143231 17.472 1.26538 16.1538 2.48985C14.532 4.11169 14.7969 6.23215 16.086 8.27938L13.7986 10.5678L15.414 12.3846C16.2755 11.6308 17.5463 11.6308 18.4078 12.3846L18.8462 12.8218L18.9474 12.9231L19.8897 11.9808C21.8368 13.1255 23.8635 13.2903 25.4089 11.7449C26.9166 10.3449 28.5514 6.89231 27.7975 4.84615L24.7692 7.97569C24.3385 8.40646 23.6858 8.40646 23.2551 7.97569L20.1245 4.84615C20.0224 4.74825 19.9411 4.63072 19.8856 4.50061C19.8301 4.37051 19.8015 4.23052 19.8015 4.08908C19.8015 3.94763 19.8301 3.80765 19.8856 3.67754C19.9411 3.54744 20.0224 3.4299 20.1245 3.332L23.2562 0.202462C22.9869 0.107692 22.7177 0.0592308 22.414 0.0333846ZM10.5678 13.4615L6.66292 17.3654C6.24325 17.2725 5.81443 17.2274 5.38462 17.2308C2.36923 17.2308 0 19.6 0 22.6154C0 25.6308 2.36923 28 5.38462 28C8.4 28 10.7692 25.6308 10.7692 22.6154C10.7692 22.0629 10.682 21.532 10.5334 21.0334L12.8218 18.7449L12.4858 18.3077C11.6243 17.4462 11.6308 16.1409 12.3846 15.2783L10.5678 13.4615ZM18.914 18.3755C19.0486 18.3755 19.1757 18.4014 19.2834 18.5102L25.6448 24.8705C25.8602 25.0858 25.8602 25.4283 25.6448 25.6437C25.4294 25.8591 25.0848 25.8591 24.8694 25.6437L18.5102 19.2834C18.2948 19.068 18.2948 18.7255 18.5102 18.5102C18.6178 18.4025 18.7794 18.3755 18.914 18.3755ZM6.12554 19.8208L8.17815 21.8745L7.43723 24.6669L4.64477 25.4078L2.59108 23.3542L3.332 20.5617L6.12554 19.8208Z" fill="#252525"/>
</g>
<defs>
<clipPath id="clip0_703_4629">
<rect width="28" height="28" fill="white"/>
</clipPath>
</defs>
</svg>
