<svg width="28" height="28" viewBox="0 0 28 28" fill="none" xmlns="http://www.w3.org/2000/svg">
<path d="M14.0002 25.6667C20.4437 25.6667 25.6668 20.4435 25.6668 14C25.6668 7.55654 20.4437 2.33337 14.0002 2.33337C7.55666 2.33337 2.3335 7.55654 2.3335 14C2.3335 20.4435 7.55666 25.6667 14.0002 25.6667ZM21.0002 14C21.0002 15.8566 20.2627 17.637 18.9499 18.9498C17.6372 20.2625 15.8567 21 14.0002 21C12.1436 21 10.3632 20.2625 9.05042 18.9498C7.73766 17.637 7.00016 15.8566 7.00016 14H14.0002V7.00004C15.8567 7.00004 17.6372 7.73754 18.9499 9.05029C20.2627 10.363 21.0002 12.1435 21.0002 14Z" fill="#252525"/>
</svg>
