<svg width="28" height="28" viewBox="0 0 28 28" fill="none" xmlns="http://www.w3.org/2000/svg">
<path d="M22.1667 0C22.0132 3.00132e-05 21.8612 0.0280118 21.7195 0.0823422C21.5778 0.136673 21.449 0.216284 21.3407 0.316615L19.3527 2.15385H10.5C10.1906 2.15385 9.89383 2.26731 9.67504 2.46927C9.45625 2.67123 9.33333 2.94515 9.33333 3.23077C9.33333 3.51639 9.45625 3.79031 9.67504 3.99227C9.89383 4.19423 10.1906 4.30769 10.5 4.30769H11.6667V7.53846C11.6667 7.82408 11.7896 8.098 12.0084 8.29996C12.2272 8.50192 12.5239 8.61539 12.8333 8.61539C13.1428 8.61539 13.4395 8.50192 13.6583 8.29996C13.8771 8.098 14 7.82408 14 7.53846V4.30769H21V26.9231C21 27.5197 21.5203 28 22.1667 28H24.5C25.1463 28 25.6667 27.5197 25.6667 26.9231V4.30769H26.8333C27.1428 4.30769 27.4395 4.19423 27.6583 3.99227C27.8771 3.79031 28 3.51639 28 3.23077V1.07692C28 0.791305 27.8771 0.517386 27.6583 0.315423C27.4395 0.113461 27.1428 0 26.8333 0H22.1667ZM1.16667 4.30769C0.857247 4.30769 0.560501 4.42115 0.341709 4.62312C0.122917 4.82508 0 5.099 0 5.38462V26.9231C0 27.2087 0.122917 27.4826 0.341709 27.6846C0.560501 27.8865 0.857247 28 1.16667 28H15.1667C15.4761 28 15.7728 27.8865 15.9916 27.6846C16.2104 27.4826 16.3333 27.2087 16.3333 26.9231V11.8462C16.3333 11.5605 16.2104 11.2866 15.9916 11.0847C15.7728 10.8827 15.4761 10.7692 15.1667 10.7692C14.8572 10.7692 14.5605 10.8827 14.3417 11.0847C14.1229 11.2866 14 11.5605 14 11.8462V12.9231H9.33333V7.53846C9.33333 7.25284 9.21042 6.97892 8.99162 6.77696C8.77283 6.575 8.47609 6.46154 8.16667 6.46154H2.33333V5.38462C2.33333 5.099 2.21042 4.82508 1.99162 4.62312C1.77283 4.42115 1.47609 4.30769 1.16667 4.30769ZM2.33333 8.61539H7V12.9231H2.33333V8.61539ZM2.33333 15.0769H7V19.3846H2.33333V15.0769ZM9.33333 15.0769H14V19.3846H9.33333V15.0769ZM2.33333 21.5385H7V25.8462H2.33333V21.5385ZM9.33333 21.5385H14V25.8462H9.33333V21.5385Z" fill="#252525"/>
</svg>
