<svg width="44" height="44" viewBox="0 0 44 44" fill="none" xmlns="http://www.w3.org/2000/svg">
<rect width="44" height="44" rx="22" fill="#E1E1E1"/>
<g clip-path="url(#clip0_205_6673)">
<path fill-rule="evenodd" clip-rule="evenodd" d="M30.928 32.7611L25.4365 27.2817C25.3164 27.1619 25.2211 27.0197 25.1561 26.8631C25.0911 26.7066 25.0576 26.5388 25.0576 26.3694C25.0576 26.1999 25.0911 26.0322 25.1561 25.8756C25.2211 25.7191 25.3164 25.5768 25.4365 25.457C25.5566 25.3372 25.6992 25.2422 25.8561 25.1773C26.0131 25.1125 26.1813 25.0791 26.3512 25.0791C26.521 25.0791 26.6892 25.1125 26.8462 25.1773C27.0031 25.2422 27.1457 25.3372 27.2658 25.457L32.7582 30.9363C33.0008 31.1784 33.137 31.5067 33.137 31.849C33.1369 32.1913 33.0005 32.5195 32.7578 32.7615C32.5151 33.0035 32.186 33.1394 31.8428 33.1393C31.4996 33.1392 31.1706 33.0031 30.928 32.7611Z" fill="#737373"/>
<path d="M24.8261 27.8907L30.3185 33.37L31.539 32.1529L26.0467 26.6736L24.8261 27.8907ZM24.8261 24.8489C24.4219 25.2524 24.1949 25.7994 24.1949 26.3698C24.1949 26.9401 24.4219 27.4872 24.8261 27.8907L26.0467 26.6736C25.966 26.5929 25.9212 26.4837 25.9212 26.3698C25.9212 26.2559 25.9665 26.1466 26.0471 26.0659L24.8261 24.8489ZM27.8764 24.8489C27.4719 24.4455 26.9233 24.2189 26.3513 24.2189C25.7792 24.2189 25.2306 24.4455 24.8261 24.8489L26.0471 26.0659C26.1279 25.9857 26.2374 25.9406 26.3515 25.9406C26.4656 25.9406 26.575 25.9857 26.6559 26.0659L27.8764 24.8489ZM33.3688 30.3282L27.8764 24.8489L26.6559 26.0659L32.1478 31.5453L33.3688 30.3282ZM33.3688 33.37C33.773 32.9665 34 32.4195 34 31.8491C34 31.2787 33.773 30.7317 33.3688 30.3282L32.1478 31.5453C32.2284 31.6259 32.2737 31.7352 32.2737 31.8491C32.2737 31.963 32.2284 32.0723 32.1478 32.1529L33.3688 33.37ZM30.3185 33.37C30.723 33.7734 31.2716 34 31.8436 34C32.4157 34 32.9643 33.7734 33.3688 33.37L32.1478 32.1529C32.067 32.2332 31.9575 32.2783 31.8434 32.2783C31.7293 32.2783 31.6199 32.2332 31.539 32.1529L30.3185 33.37ZM10.2806 16.1152C10.5558 15.0706 11.0353 14.0905 11.6914 13.2313C12.3475 12.372 13.1674 11.6506 14.1038 11.1083C15.0403 10.566 16.075 10.2137 17.1484 10.0714C18.2218 9.92917 19.3128 9.99986 20.3587 10.2794C21.4046 10.559 22.3849 11.0419 23.2431 11.7005C24.1014 12.359 24.8208 13.1802 25.3599 14.1169C25.8991 15.0536 26.2474 16.0873 26.3849 17.1586C26.5224 18.23 26.4463 19.3179 26.161 20.3598C25.5967 22.4604 24.2189 24.2514 22.3308 25.3387C20.4426 26.4261 18.1988 26.7207 16.0929 26.1578C13.9869 25.5949 12.1914 24.2207 11.1013 22.3373C10.0112 20.454 9.71585 18.2158 10.2801 16.1152" fill="#737373"/>
</g>
<defs>
<clipPath id="clip0_205_6673">
<rect width="24" height="24" fill="white" transform="translate(10 10)"/>
</clipPath>
</defs>
</svg>
