<svg width="16" height="20" viewBox="0 0 16 20" fill="none" xmlns="http://www.w3.org/2000/svg">
<path d="M5.88149 8.43993L7.49249 6.96393C7.93299 6.55956 8.2426 6.03278 8.38158 5.4512C8.52056 4.86962 8.48257 4.25977 8.27249 3.69993L7.58549 1.86543C7.32883 1.18056 6.82071 0.619306 6.16465 0.296015C5.50859 -0.0272755 4.75396 -0.0882795 4.05449 0.125431C1.48049 0.912931 -0.498009 3.30543 0.110991 6.14643C0.511491 8.01543 1.27799 10.3614 2.72999 12.8574C4.18499 15.3594 5.84699 17.2074 7.27199 18.5064C9.42299 20.4639 12.498 19.9749 14.4765 18.1299C15.0065 17.6353 15.3281 16.9572 15.3758 16.2337C15.4234 15.5103 15.1936 14.7959 14.733 14.2359L13.473 12.7059C13.093 12.2433 12.5832 11.9049 12.0093 11.7343C11.4353 11.5638 10.8235 11.5689 10.2525 11.7489L8.17049 12.4044C7.6325 11.8498 7.1613 11.2341 6.76649 10.5699C6.38551 9.89826 6.0883 9.18242 5.88149 8.43843" fill="white"/>
</svg>
