<svg width="28" height="28" viewBox="0 0 28 28" fill="none" xmlns="http://www.w3.org/2000/svg">
<g clip-path="url(#clip0_703_4643)">
<path d="M5.73785 20.2183H0.61035C0.534852 20.2183 0.462446 20.2483 0.409061 20.3017C0.355675 20.3551 0.325684 20.4275 0.325684 20.503V22.4863C0.327762 22.5763 0.347172 22.665 0.38285 22.7477L2.41052 26.7925C2.4707 26.946 2.57575 27.0778 2.71196 27.1707C2.84817 27.2636 3.00922 27.3133 3.1741 27.3133C3.33898 27.3133 3.50003 27.2636 3.63624 27.1707C3.77246 27.0778 3.8775 26.946 3.93768 26.7925L6.02252 22.7477C6.03892 22.6613 6.03892 22.5727 6.02252 22.4863V20.503C6.02252 20.4275 5.99253 20.3551 5.93914 20.3017C5.88576 20.2483 5.81335 20.2183 5.73785 20.2183ZM0.61035 7.68599H5.73785C5.89535 7.68599 6.02252 7.55765 6.02252 7.40132V6.56832C6.02252 4.37499 3.64835 3.00532 1.75018 4.10082C1.31694 4.35095 0.957262 4.71084 0.707385 5.14424C0.457508 5.57763 0.326256 6.06922 0.32685 6.56949V7.40132C0.32685 7.55882 0.45285 7.68599 0.61035 7.68599Z" fill="#252525"/>
<path d="M27.4868 25.858L26.0285 23.5795C26.0041 23.5381 25.9912 23.491 25.9912 23.443C25.9912 23.395 26.0041 23.3478 26.0285 23.3065C26.1517 23.0507 26.207 22.7675 26.1892 22.4841C26.1715 22.2008 26.0812 21.9267 25.927 21.6883L17.6087 8.51664C17.557 8.4367 17.4862 8.37093 17.4027 8.32529C17.3191 8.27966 17.2255 8.2556 17.1303 8.25531H10.296C10.179 8.25562 10.065 8.2918 9.96922 8.35898C9.87347 8.42616 9.80062 8.52109 9.76052 8.63097L7.63018 14.3966C7.44585 14.7933 7.06318 15.0581 6.62685 15.092H6.02368V9.67864C6.02338 9.60334 5.99325 9.53124 5.9399 9.4781C5.88654 9.42497 5.81431 9.39514 5.73902 9.39514H0.61035C0.534852 9.39514 0.462446 9.42513 0.409061 9.47852C0.355675 9.5319 0.325684 9.60431 0.325684 9.67981V18.2245C0.325684 18.382 0.454017 18.5091 0.61035 18.5091H9.15618C9.60253 18.4922 10.0348 18.3482 10.402 18.094C10.7693 17.8398 11.0563 17.4859 11.2293 17.0741L13.6327 10.6598C13.6588 10.6202 13.6945 10.5878 13.7366 10.5657C13.7786 10.5437 13.8256 10.5327 13.873 10.5338C13.9267 10.5291 13.9806 10.5394 14.0288 10.5635C14.077 10.5876 14.1176 10.6246 14.146 10.6703L22.3267 23.9785C22.6522 24.5035 23.2355 24.8138 23.8527 24.787C23.9031 24.7838 23.9534 24.7949 23.9978 24.8191C24.0421 24.8432 24.0788 24.8794 24.1035 24.9235L25.5735 27.2031C25.6559 27.3288 25.7622 27.437 25.8863 27.5215C26.0105 27.6061 26.1501 27.6653 26.2971 27.6959C26.4442 27.7265 26.5958 27.7279 26.7434 27.6999C26.891 27.6719 27.0316 27.6151 27.1573 27.5327C27.2829 27.4504 27.3911 27.3441 27.4756 27.2199C27.5602 27.0958 27.6195 26.9562 27.6501 26.8091C27.6807 26.662 27.682 26.5104 27.654 26.3628C27.626 26.2152 27.5692 26.0746 27.4868 25.949V25.858ZM10.2949 6.54614H17.1315C17.4465 6.54614 17.7008 6.29181 17.7008 5.97681V4.26764C17.7008 1.19814 14.3782 -0.721027 11.7193 0.814306C11.1131 1.16432 10.6096 1.66768 10.2594 2.27383C9.90926 2.87999 9.72472 3.56761 9.72435 4.26764V5.97681C9.72435 6.29181 9.97985 6.54614 10.2949 6.54614ZM13.7143 1.98914C13.867 1.98425 14.0191 2.0101 14.1616 2.06516C14.3041 2.12021 14.4341 2.20334 14.5438 2.30962C14.6535 2.41589 14.7408 2.54313 14.8004 2.68378C14.8599 2.82444 14.8906 2.97564 14.8906 3.12839C14.8906 3.28114 14.8599 3.43234 14.8004 3.57299C14.7408 3.71365 14.6535 3.84089 14.5438 3.94716C14.4341 4.05343 14.3041 4.13657 14.1616 4.19162C14.0191 4.24667 13.867 4.27253 13.7143 4.26764C13.4185 4.25817 13.138 4.13399 12.932 3.92138C12.7261 3.70876 12.611 3.42438 12.611 3.12839C12.611 2.8324 12.7261 2.54802 12.932 2.3354C13.138 2.12278 13.4185 1.99861 13.7143 1.98914Z" fill="#252525"/>
</g>
<defs>
<clipPath id="clip0_703_4643">
<rect width="28" height="28" fill="white"/>
</clipPath>
</defs>
</svg>
