<svg width="19" height="19" viewBox="0 0 19 19" fill="none" xmlns="http://www.w3.org/2000/svg">
<path d="M17.106 1.18543C16.0817 0.160714 14.6349 0 12.9274 0H5.33357C3.64629 0 2.19986 0.160714 1.17514 1.185C0.150428 2.20929 0 3.64586 0 5.32371V12.9171C0 14.6349 0.150857 16.0611 1.17514 17.0859C2.19943 18.1106 3.64629 18.2709 5.364 18.2709H12.9274C14.6349 18.2709 16.0817 18.1101 17.106 17.0859C18.1303 16.0616 18.2811 14.6349 18.2811 12.9171V5.35371C18.2811 3.636 18.1307 2.19986 17.106 1.18543ZM9.14057 15.0261C8.93024 15.0258 8.72862 14.9421 8.57986 14.7934C8.43109 14.6448 8.34731 14.4432 8.34686 14.2329V9.924H4.04829C3.606 9.924 3.25457 9.56229 3.25457 9.14057C3.25457 8.71886 3.606 8.337 4.04786 8.337H8.34686V4.03757C8.34686 3.58586 8.69829 3.234 9.14057 3.234C9.59271 3.234 9.93429 3.58543 9.93429 4.03757V8.337H14.2431C14.6854 8.337 15.0369 8.71843 15.0369 9.14057C15.0369 9.56229 14.6854 9.924 14.2431 9.924H9.93429V14.2333C9.93491 14.3377 9.91481 14.4411 9.87513 14.5377C9.83546 14.6343 9.77702 14.722 9.70318 14.7958C9.62935 14.8696 9.5416 14.928 9.44502 14.9676C9.34844 15.0072 9.24496 15.0268 9.14057 15.0261Z" fill="#F28800"/>
</svg>
