<svg width="24" height="24" viewBox="0 0 24 24" fill="none" xmlns="http://www.w3.org/2000/svg">
<path d="M12.0001 2C7.59009 2 4.00009 5.59 4.00009 10C3.97009 16.44 11.1201 21.6 11.4201 21.82C11.5901 21.94 11.8001 22.01 12.0001 22.01C12.2001 22.01 12.4101 21.95 12.5801 21.82C12.8801 21.6 20.0301 16.45 20.0001 10C20.0001 5.59 16.4101 2 12.0001 2ZM12.0001 14C9.79009 14 8.00009 12.21 8.00009 10C8.00009 7.79 9.79009 6 12.0001 6C14.2101 6 16.0001 7.79 16.0001 10C16.0001 12.21 14.2101 14 12.0001 14Z" fill="white"/>
</svg>
