<svg width="26" height="26" viewBox="0 0 26 26" fill="none" xmlns="http://www.w3.org/2000/svg">
<mask id="mask0_950_3400" style="mask-type:luminance" maskUnits="userSpaceOnUse" x="0" y="0" width="26" height="26">
<path d="M12.6667 24.3333C14.199 24.3352 15.7167 24.0343 17.1324 23.4479C18.5481 22.8615 19.834 22.0011 20.9162 20.9162C22.0011 19.834 22.8615 18.5481 23.4479 17.1324C24.0343 15.7167 24.3352 14.199 24.3333 12.6667C24.3352 11.1343 24.0343 9.61668 23.4479 8.20096C22.8615 6.78525 22.0011 5.49936 20.9162 4.41718C19.834 3.33227 18.5481 2.47189 17.1324 1.88546C15.7167 1.29903 14.199 0.998119 12.6667 1.00001C11.1343 0.998119 9.61668 1.29903 8.20096 1.88546C6.78525 2.47189 5.49936 3.33227 4.41718 4.41718C3.33227 5.49936 2.47189 6.78525 1.88546 8.20096C1.29903 9.61668 0.998119 11.1343 1.00001 12.6667C0.998119 14.199 1.29903 15.7167 1.88546 17.1324C2.47189 18.5481 3.33227 19.834 4.41718 20.9162C5.49936 22.0011 6.78525 22.8615 8.20096 23.4479C9.61668 24.0343 11.1343 24.3352 12.6667 24.3333Z" fill="white" stroke="white" stroke-width="2" stroke-linejoin="round"/>
<path d="M8 12.6667L11.5 16.1667L18.5 9.16675" stroke="black" stroke-width="2" stroke-linecap="round" stroke-linejoin="round"/>
</mask>
<g mask="url(#mask0_950_3400)">
<path d="M-1.33325 -1.33325H26.6667V26.6667H-1.33325V-1.33325Z" fill="#F28800"/>
</g>
</svg>
