<svg width="24" height="24" viewBox="0 0 24 24" fill="none" xmlns="http://www.w3.org/2000/svg">
<path d="M1.60128 16.2721C1.44961 16.4237 1.34461 16.6104 1.29795 16.8087L0.037947 21.8721C-0.067053 22.2687 0.0496137 22.6887 0.34128 22.9804C0.562947 23.2021 0.86628 23.3187 1.16961 23.3187C1.26295 23.3187 1.35628 23.3187 1.44961 23.2837L6.51295 22.0121C6.72295 21.9654 6.90961 21.8604 7.04961 21.7087L18.8913 9.86708L13.4429 4.41875L1.60128 16.2721ZM20.6063 0.70875C19.6613 -0.23625 18.1096 -0.23625 17.1646 0.70875L15.0879 2.78542L20.5363 8.23375L22.6129 6.15708C23.5579 5.21208 23.5579 3.67208 22.6129 2.71542L20.6063 0.70875Z" fill="#252525"/>
</svg>
