<svg width="277" height="22" viewBox="0 0 277 22" fill="none" xmlns="http://www.w3.org/2000/svg">
<path d="M100.5 3L102.296 8.52786H108.108L103.406 11.9443L105.202 17.4721L100.5 14.0557L95.7977 17.4721L97.5938 11.9443L92.8915 8.52786H98.7039L100.5 3Z" fill="#FFC107"/>
<path d="M119.5 3L121.296 8.52786H127.108L122.406 11.9443L124.202 17.4721L119.5 14.0557L114.798 17.4721L116.594 11.9443L111.892 8.52786H117.704L119.5 3Z" fill="#FFC107"/>
<path d="M138.5 3L140.296 8.52786H146.108L141.406 11.9443L143.202 17.4721L138.5 14.0557L133.798 17.4721L135.594 11.9443L130.892 8.52786H136.704L138.5 3Z" fill="#FFC107"/>
<path d="M157.5 3L159.296 8.52786H165.108L160.406 11.9443L162.202 17.4721L157.5 14.0557L152.798 17.4721L154.594 11.9443L149.892 8.52786H155.704L157.5 3Z" fill="#FFC107"/>
<path d="M176.5 3L178.296 8.52786H184.108L179.406 11.9443L181.202 17.4721L176.5 14.0557L171.798 17.4721L173.594 11.9443L168.892 8.52786H174.704L176.5 3Z" fill="#FFC107"/>
</svg>
